<svg version="1.1" fill="white" xmlns="http://www.w3.org/2000/svg" xmlns:xlink="http://www.w3.org/1999/xlink" x="0px" y="0px" viewBox="0 0 1000 1000" enable-background="new 0 0 1000 1000" xml:space="preserve">
<g><path d="M951.7,280.3c56.2-56.1,49.9-153.7-14.1-217.7c-64.1-64-161.6-70.3-217.7-14.2l-72.7,72.9L879,353.1L951.7,280.3L951.7,280.3z"/><path d="M345.6,886.5l378.6-378.7l47.6,47.6l97.6-97.7l-327-327l-97.6,97.6l47.6,47.6L113.6,654.4L10,943.5l46.4,46.4L345.6,886.5L345.6,886.5z M557.9,341.5l100.7,100.8L272.9,827.8L113.2,887l59.1-159.9L557.9,341.5L557.9,341.5z"/></g>
</svg>